{
  "accessors": [
    {
      "bufferView": 2,
      "componentType": 5126,
      "count": 65532,
      "max": [
        0.49777841567993164,
        -0.8330804109573364,
        4.128668308258057
      ],
      "min": [
        -0.847663402557373,
        -0.9204801321029663,
        -0.3579254150390625
      ],
      "type": "VEC3"
    },
    {
      "bufferView": 2,
      "byteOffset": 786384,
      "componentType": 5126,
      "count": 65532,
      "max": [
        0.9999999403953552,
        1.0,
        0.9999883770942688
      ],
      "min": [
        -0.999988317489624,
        -1.0,
        -0.9999881386756897
      ],
      "type": "VEC3"
    },
    {
      "bufferView": 1,
      "componentType": 5126,
      "count": 65532,
      "max": [
        0.023325594142079353,
        0.9997954368591309
      ],
      "min": [
        0.00020454704645089805,
        0.00020452268654480577
      ],
      "type": "VEC2"
    },
    {
      "bufferView": 0,
      "componentType": 5125,
      "count": 388263,
      "type": "SCALAR"
    },
    {
      "bufferView": 2,
      "byteOffset": 1572768,
      "componentType": 5126,
      "count": 65532,
      "max": [
        0.5613369941711426,
        -0.8438568115234375,
        4.418792247772217
      ],
      "min": [
        -0.5948846340179443,
        -0.9139665365219116,
        -4.266402244567871
      ],
      "type": "VEC3"
    },
    {
      "bufferView": 2,
      "byteOffset": 2359152,
      "componentType": 5126,
      "count": 65532,
      "max": [
        1.0,
        1.0,
        1.0
      ],
      "min": [
        -1.0,
        -1.0,
        -1.0
      ],
      "type": "VEC3"
    },
    {
      "bufferView": 1,
      "byteOffset": 524256,
      "componentType": 5126,
      "count": 65532,
      "max": [
        0.022298961877822876,
        0.7832131385803223
      ],
      "min": [
        0.0006954357377253473,
        0.0002045295259449631
      ],
      "type": "VEC2"
    },
    {
      "bufferView": 0,
      "byteOffset": 1553052,
      "componentType": 5125,
      "count": 384015,
      "type": "SCALAR"
    },
    {
      "bufferView": 2,
      "byteOffset": 3145536,
      "componentType": 5126,
      "count": 65532,
      "max": [
        0.39263227581977844,
        0.8270420432090759,
        2.537064790725708
      ],
      "min": [
        -0.48170793056488037,
        -0.9095289707183838,
        -4.2743239402771
      ],
      "type": "VEC3"
    },
    {
      "bufferView": 2,
      "byteOffset": 3931920,
      "componentType": 5126,
      "count": 65532,
      "max": [
        1.0,
        0.9999638795852661,
        1.0
      ],
      "min": [
        -1.0,
        -0.9999254941940308,
        -1.0
      ],
      "type": "VEC3"
    },
    {
      "bufferView": 1,
      "byteOffset": 1048512,
      "componentType": 5126,
      "count": 65532,
      "max": [
        0.011818029917776585,
        0.6986562609672546
      ],
      "min": [
        0.0021008430048823357,
        0.0002045791334239766
      ],
      "type": "VEC2"
    },
    {
      "bufferView": 0,
      "byteOffset": 3089112,
      "componentType": 5125,
      "count": 386229,
      "type": "SCALAR"
    },
    {
      "bufferView": 2,
      "byteOffset": 4718304,
      "componentType": 5126,
      "count": 65532,
      "max": [
        4.153181552886963,
        0.852854311466217,
        5.641742706298828
      ],
      "min": [
        -0.5155748128890991,
        -0.82552570104599,
        -5.054060935974121
      ],
      "type": "VEC3"
    },
    {
      "bufferView": 2,
      "byteOffset": 5504688,
      "componentType": 5126,
      "count": 65532,
      "max": [
        1.0,
        0.9999865293502808,
        1.0
      ],
      "min": [
        -1.0,
        -0.9999868869781494,
        -1.0
      ],
      "type": "VEC3"
    },
    {
      "bufferView": 1,
      "byteOffset": 1572768,
      "componentType": 5126,
      "count": 65532,
      "max": [
        0.994827151298523,
        0.8366432189941406
      ],
      "min": [
        0.0006954357377253473,
        0.0002045295259449631
      ],
      "type": "VEC2"
    },
    {
      "bufferView": 0,
      "byteOffset": 4634028,
      "componentType": 5125,
      "count": 380841,
      "type": "SCALAR"
    },
    {
      "bufferView": 2,
      "byteOffset": 6291072,
      "componentType": 5126,
      "count": 65532,
      "max": [
        4.153181552886963,
        0.8638054728507996,
        5.641742706298828
      ],
      "min": [
        -0.7744414806365967,
        -0.8254246115684509,
        -5.054060935974121
      ],
      "type": "VEC3"
    },
    {
      "bufferView": 2,
      "byteOffset": 7077456,
      "componentType": 5126,
      "count": 65532,
      "max": [
        1.0,
        1.0,
        1.0
      ],
      "min": [
        -1.0,
        -1.0,
        -1.0
      ],
      "type": "VEC3"
    },
    {
      "bufferView": 1,
      "byteOffset": 2097024,
      "componentType": 5126,
      "count": 65532,
      "max": [
        0.9861280918121338,
        0.8336167931556702
      ],
      "min": [
        0.0013595944037660956,
        0.00020453889737837017
      ],
      "type": "VEC2"
    },
    {
      "bufferView": 0,
      "byteOffset": 6157392,
      "componentType": 5125,
      "count": 378282,
      "type": "SCALAR"
    },
    {
      "bufferView": 2,
      "byteOffset": 7863840,
      "componentType": 5126,
      "count": 65532,
      "max": [
        0.49777841567993164,
        0.8551850318908691,
        0.7766523361206055
      ],
      "min": [
        -0.847663402557373,
        -0.9054785966873169,
        -2.092282295227051
      ],
      "type": "VEC3"
    },
    {
      "bufferView": 2,
      "byteOffset": 8650224,
      "componentType": 5126,
      "count": 65532,
      "max": [
        0.9999886155128479,
        0.9999624490737915,
        0.9999883770942688
      ],
      "min": [
        -0.999988317489624,
        -0.9999759793281555,
        -0.9999880790710449
      ],
      "type": "VEC3"
    },
    {
      "bufferView": 1,
      "byteOffset": 2621280,
      "componentType": 5126,
      "count": 65532,
      "max": [
        0.013801890425384045,
        0.9997954368591309
      ],
      "min": [
        0.00020454704645089805,
        0.00020452268654480577
      ],
      "type": "VEC2"
    },
    {
      "bufferView": 0,
      "byteOffset": 7670520,
      "componentType": 5125,
      "count": 392316,
      "type": "SCALAR"
    },
    {
      "bufferView": 2,
      "byteOffset": 9436608,
      "componentType": 5126,
      "count": 17730,
      "max": [
        0.5142865777015686,
        -0.852225661277771,
        -0.9871773719787598
      ],
      "min": [
        -0.4214661419391632,
        -0.9100866317749023,
        -2.1143720149993896
      ],
      "type": "VEC3"
    },
    {
      "bufferView": 2,
      "byteOffset": 9649368,
      "componentType": 5126,
      "count": 17730,
      "max": [
        1.0,
        0.9997007846832275,
        1.0
      ],
      "min": [
        -1.0,
        -0.9997320771217346,
        -1.0
      ],
      "type": "VEC3"
    },
    {
      "bufferView": 1,
      "byteOffset": 3145536,
      "componentType": 5126,
      "count": 17730,
      "max": [
        0.013077677227556705,
        0.15399135649204254
      ],
      "min": [
        0.001498139463365078,
        0.0002045636356342584
      ],
      "type": "VEC2"
    },
    {
      "bufferView": 0,
      "byteOffset": 9239784,
      "componentType": 5125,
      "count": 106086,
      "type": "SCALAR"
    },
    {
      "bufferView": 2,
      "byteOffset": 9862128,
      "componentType": 5126,
      "count": 3384,
      "max": [
        4.39656925201416,
        1.3320432901382446,
        7.573639392852783
      ],
      "min": [
        -0.12122228741645813,
        -1.3590017557144165,
        -9.749307632446289
      ],
      "type": "VEC3"
    },
    {
      "bufferView": 2,
      "byteOffset": 9902736,
      "componentType": 5126,
      "count": 3384,
      "max": [
        1.0,
        1.0,
        1.0
      ],
      "min": [
        -1.0,
        -1.0,
        -1.0
      ],
      "type": "VEC3"
    },
    {
      "bufferView": 3,
      "componentType": 5126,
      "count": 3384,
      "max": [
        1.0,
        1.0,
        1.0,
        1.0
      ],
      "min": [
        -1.0,
        -1.0,
        -1.0,
        -1.0
      ],
      "type": "VEC4"
    },
    {
      "bufferView": 1,
      "byteOffset": 3287376,
      "componentType": 5126,
      "count": 3384,
      "max": [
        0.9948683381080627,
        0.982643723487854
      ],
      "min": [
        0.0051329731941223145,
        0.005130350589752197
      ],
      "type": "VEC2"
    },
    {
      "bufferView": 1,
      "byteOffset": 3314448,
      "componentType": 5126,
      "count": 3384,
      "max": [
        0.9948683381080627,
        0.982643723487854
      ],
      "min": [
        0.0051329731941223145,
        0.005130350589752197
      ],
      "type": "VEC2"
    },
    {
      "bufferView": 1,
      "byteOffset": 3341520,
      "componentType": 5126,
      "count": 3384,
      "max": [
        0.9948683381080627,
        0.982643723487854
      ],
      "min": [
        0.0051329731941223145,
        0.005130350589752197
      ],
      "type": "VEC2"
    },
    {
      "bufferView": 0,
      "byteOffset": 9664128,
      "componentType": 5125,
      "count": 11280,
      "type": "SCALAR"
    },
    {
      "bufferView": 2,
      "byteOffset": 9943344,
      "componentType": 5126,
      "count": 15231,
      "max": [
        0.7367190718650818,
        0.8575690984725952,
        4.677206039428711
      ],
      "min": [
        -0.9696792960166931,
        -0.9142438173294067,
        -4.487257957458496
      ],
      "type": "VEC3"
    },
    {
      "bufferView": 2,
      "byteOffset": 10126116,
      "componentType": 5126,
      "count": 15231,
      "max": [
        1.0,
        1.0,
        1.0
      ],
      "min": [
        -1.0,
        -1.0,
        -1.0
      ],
      "type": "VEC3"
    },
    {
      "bufferView": 3,
      "byteOffset": 54144,
      "componentType": 5126,
      "count": 15231,
      "max": [
        1.0,
        1.0,
        1.0,
        1.0
      ],
      "min": [
        -0.9999569654464722,
        -1.0,
        -0.9999999403953552,
        -1.0
      ],
      "type": "VEC4"
    },
    {
      "bufferView": 1,
      "byteOffset": 3368592,
      "componentType": 5126,
      "count": 15231,
      "max": [
        0.9907060861587524,
        0.9936019778251648
      ],
      "min": [
        0.005300462245941162,
        0.00529300794005394
      ],
      "type": "VEC2"
    },
    {
      "bufferView": 1,
      "byteOffset": 3490440,
      "componentType": 5126,
      "count": 15231,
      "max": [
        0.9907060861587524,
        0.9936019778251648
      ],
      "min": [
        0.005300462245941162,
        0.00529300794005394
      ],
      "type": "VEC2"
    },
    {
      "bufferView": 1,
      "byteOffset": 3612288,
      "componentType": 5126,
      "count": 15231,
      "max": [
        0.9907060861587524,
        0.9936019778251648
      ],
      "min": [
        0.005300462245941162,
        0.00529300794005394
      ],
      "type": "VEC2"
    },
    {
      "bufferView": 0,
      "byteOffset": 9709248,
      "componentType": 5125,
      "count": 49368,
      "type": "SCALAR"
    },
    {
      "bufferView": 2,
      "byteOffset": 10308888,
      "componentType": 5126,
      "count": 25458,
      "max": [
        4.157931804656982,
        0.8370503783226013,
        5.649660110473633
      ],
      "min": [
        -0.7792545557022095,
        -0.8937252163887024,
        -5.062624931335449
      ],
      "type": "VEC3"
    },
    {
      "bufferView": 2,
      "byteOffset": 10614384,
      "componentType": 5126,
      "count": 25458,
      "max": [
        0.9994662404060364,
        1.0,
        0.9994665384292603
      ],
      "min": [
        -0.9994667172431946,
        -1.0,
        -0.999466598033905
      ],
      "type": "VEC3"
    },
    {
      "bufferView": 1,
      "byteOffset": 3734136,
      "componentType": 5126,
      "count": 25458,
      "max": [
        1.0000001192092896,
        1.0000001192092896
      ],
      "min": [
        0.0,
        0.010000006295740604
      ],
      "type": "VEC2"
    },
    {
      "bufferView": 0,
      "byteOffset": 9906720,
      "componentType": 5125,
      "count": 138624,
      "type": "SCALAR"
    }
  ],
  "asset": {
    "extras": {
      "author": "Donstereo (https://sketchfab.com/Donstereo)",
      "license": "CC-BY-4.0 (http://creativecommons.org/licenses/by/4.0/)",
      "source": "https://sketchfab.com/3d-models/neon-sign-vegas-0beef653394f466e80044ac15c3234f9",
      "title": "Neon Sign \"Vegas\""
    },
    "generator": "Sketchfab-15.68.0",
    "version": "2.0"
  },
  "bufferViews": [
    {
      "buffer": 0,
      "byteLength": 10461216,
      "name": "floatBufferViews",
      "target": 34963
    },
    {
      "buffer": 0,
      "byteLength": 3937800,
      "byteOffset": 10461216,
      "byteStride": 8,
      "name": "floatBufferViews",
      "target": 34962
    },
    {
      "buffer": 0,
      "byteLength": 10919880,
      "byteOffset": 14399016,
      "byteStride": 12,
      "name": "floatBufferViews",
      "target": 34962
    },
    {
      "buffer": 0,
      "byteLength": 297840,
      "byteOffset": 25318896,
      "byteStride": 16,
      "name": "floatBufferViews",
      "target": 34962
    }
  ],
  "buffers": [
    {
      "byteLength": 25616736,
      "uri": "scene.bin"
    }
  ],
  "extensionsUsed": [
    "KHR_materials_emissive_strength"
  ],
  "images": [
    {
      "uri": "textures/mango_stolb_baseColor.png"
    },
    {
      "uri": "textures/mango_stolb_metallicRoughness.png"
    },
    {
      "uri": "textures/mango_stolb_normal.png"
    },
    {
      "uri": "textures/bukvi_baseColor.png"
    },
    {
      "uri": "textures/bukvi_metallicRoughness.png"
    },
    {
      "uri": "textures/bukvi_normal.png"
    }
  ],
  "materials": [
    {
      "doubleSided": true,
      "emissiveFactor": [
        1.0,
        0.004036379999999998,
        0.0
      ],
      "extensions": {
        "KHR_materials_emissive_strength": {
          "emissiveStrength": 10.0
        }
      },
      "name": "Neon",
      "pbrMetallicRoughness": {
        "baseColorFactor": [
          0.800378,
          0.596198,
          0.0,
          1.0
        ],
        "metallicFactor": 0.0,
        "roughnessFactor": 0.8666048665776629
      }
    },
    {
      "doubleSided": true,
      "name": "mango_stolb",
      "normalTexture": {
        "index": 2
      },
      "occlusionTexture": {
        "index": 1
      },
      "pbrMetallicRoughness": {
        "baseColorTexture": {
          "index": 0
        },
        "metallicRoughnessTexture": {
          "index": 1
        }
      }
    },
    {
      "doubleSided": true,
      "name": "bukvi",
      "normalTexture": {
        "index": 5
      },
      "occlusionTexture": {
        "index": 4
      },
      "pbrMetallicRoughness": {
        "baseColorTexture": {
          "index": 3
        },
        "metallicRoughnessTexture": {
          "index": 4
        }
      }
    },
    {
      "doubleSided": true,
      "name": "Material",
      "pbrMetallicRoughness": {
        "baseColorFactor": [
          0.07266499999999998,
          0.03363840000000001,
          0.013948800000000003,
          1.0
        ],
        "metallicFactor": 0.0,
        "roughnessFactor": 0.9972685575934963
      }
    }
  ],
  "meshes": [
    {
      "name": "8_high_Neon_0",
      "primitives": [
        {
          "attributes": {
            "NORMAL": 1,
            "POSITION": 0,
            "TEXCOORD_0": 2
          },
          "indices": 3,
          "material": 0,
          "mode": 4
        }
      ]
    },
    {
      "name": "8_high_Neon_0",
      "primitives": [
        {
          "attributes": {
            "NORMAL": 5,
            "POSITION": 4,
            "TEXCOORD_0": 6
          },
          "indices": 7,
          "material": 0,
          "mode": 4
        }
      ]
    },
    {
      "name": "8_high_Neon_0",
      "primitives": [
        {
          "attributes": {
            "NORMAL": 9,
            "POSITION": 8,
            "TEXCOORD_0": 10
          },
          "indices": 11,
          "material": 0,
          "mode": 4
        }
      ]
    },
    {
      "name": "8_high_Neon_0",
      "primitives": [
        {
          "attributes": {
            "NORMAL": 13,
            "POSITION": 12,
            "TEXCOORD_0": 14
          },
          "indices": 15,
          "material": 0,
          "mode": 4
        }
      ]
    },
    {
      "name": "8_high_Neon_0",
      "primitives": [
        {
          "attributes": {
            "NORMAL": 17,
            "POSITION": 16,
            "TEXCOORD_0": 18
          },
          "indices": 19,
          "material": 0,
          "mode": 4
        }
      ]
    },
    {
      "name": "8_high_Neon_0",
      "primitives": [
        {
          "attributes": {
            "NORMAL": 21,
            "POSITION": 20,
            "TEXCOORD_0": 22
          },
          "indices": 23,
          "material": 0,
          "mode": 4
        }
      ]
    },
    {
      "name": "8_high_Neon_0",
      "primitives": [
        {
          "attributes": {
            "NORMAL": 25,
            "POSITION": 24,
            "TEXCOORD_0": 26
          },
          "indices": 27,
          "material": 0,
          "mode": 4
        }
      ]
    },
    {
      "name": "8_high_mango_stolb_0",
      "primitives": [
        {
          "attributes": {
            "NORMAL": 29,
            "POSITION": 28,
            "TANGENT": 30,
            "TEXCOORD_0": 31,
            "TEXCOORD_1": 32,
            "TEXCOORD_2": 33
          },
          "indices": 34,
          "material": 1,
          "mode": 4
        }
      ]
    },
    {
      "name": "8_high_bukvi_0",
      "primitives": [
        {
          "attributes": {
            "NORMAL": 36,
            "POSITION": 35,
            "TANGENT": 37,
            "TEXCOORD_0": 38,
            "TEXCOORD_1": 39,
            "TEXCOORD_2": 40
          },
          "indices": 41,
          "material": 2,
          "mode": 4
        }
      ]
    },
    {
      "name": "8_high_Material_0",
      "primitives": [
        {
          "attributes": {
            "NORMAL": 43,
            "POSITION": 42,
            "TEXCOORD_0": 44
          },
          "indices": 45,
          "material": 3,
          "mode": 4
        }
      ]
    }
  ],
  "nodes": [
    {
      "children": [
        1
      ],
      "matrix": [
        1.0,
        0.0,
        0.0,
        0.0,
        0.0,
        2.220446049250313e-16,
        -1.0,
        0.0,
        0.0,
        1.0,
        2.220446049250313e-16,
        0.0,
        0.0,
        0.0,
        0.0,
        1.0
      ],
      "name": "Sketchfab_model"
    },
    {
      "children": [
        2
      ],
      "matrix": [
        0.009999999776482582,
        0.0,
        0.0,
        0.0,
        0.0,
        0.0,
        0.009999999776482582,
        0.0,
        0.0,
        -0.009999999776482582,
        0.0,
        0.0,
        0.0,
        0.0,
        0.0,
        1.0
      ],
      "name": "de2d564e43ce4d288336e5076e2ae59d.fbx"
    },
    {
      "children": [
        3
      ],
      "name": "RootNode"
    },
    {
      "children": [
        4,
        5,
        6,
        7,
        8,
        9,
        10,
        11,
        12,
        13
      ],
      "matrix": [
        100.0,
        0.0,
        0.0,
        0.0,
        -0.0,
        -1.629206793918314e-05,
        -99.99999999999868,
        0.0,
        0.0,
        99.99999999999868,
        -1.629206793918314e-05,
        0.0,
        -153.7925567626953,
        1077.1883544921875,
        -1.3479119539260864,
        1.0
      ],
      "name": "8_high"
    },
    {
      "mesh": 0,
      "name": "8_high_Neon_0"
    },
    {
      "mesh": 1,
      "name": "8_high_Neon_0"
    },
    {
      "mesh": 2,
      "name": "8_high_Neon_0"
    },
    {
      "mesh": 3,
      "name": "8_high_Neon_0"
    },
    {
      "mesh": 4,
      "name": "8_high_Neon_0"
    },
    {
      "mesh": 5,
      "name": "8_high_Neon_0"
    },
    {
      "mesh": 6,
      "name": "8_high_Neon_0"
    },
    {
      "mesh": 7,
      "name": "8_high_mango_stolb_0"
    },
    {
      "mesh": 8,
      "name": "8_high_bukvi_0"
    },
    {
      "mesh": 9,
      "name": "8_high_Material_0"
    }
  ],
  "samplers": [
    {
      "magFilter": 9729,
      "minFilter": 9987,
      "wrapS": 10497,
      "wrapT": 10497
    }
  ],
  "scene": 0,
  "scenes": [
    {
      "name": "Sketchfab_Scene",
      "nodes": [
        0
      ]
    }
  ],
  "textures": [
    {
      "sampler": 0,
      "source": 0
    },
    {
      "sampler": 0,
      "source": 1
    },
    {
      "sampler": 0,
      "source": 2
    },
    {
      "sampler": 0,
      "source": 3
    },
    {
      "sampler": 0,
      "source": 4
    },
    {
      "sampler": 0,
      "source": 5
    }
  ]
}
